<?xml version="1.0" encoding="utf-8"?>
<!-- Generator: Adobe Illustrator 21.0.0, SVG Export Plug-In . SVG Version: 6.00 Build 0)  -->
<svg version="1.1" xmlns="http://www.w3.org/2000/svg" xmlns:xlink="http://www.w3.org/1999/xlink" x="0px" y="0px"
	 viewBox="0 0 438 91.5" style="enable-background:new 0 0 438 91.5;" xml:space="preserve">
<style type="text/css">
	.st0{fill:#FFB800;}
	.st1{fill:#FF0020;}
	.st2{fill:#FFFFFF;}
	.st3{fill-rule:evenodd;clip-rule:evenodd;fill:#FF0020;}
	.st4{fill-rule:evenodd;clip-rule:evenodd;fill:#FFFFFF;}
	.st5{fill-rule:evenodd;clip-rule:evenodd;fill:#FFB800;}
	.st6{display:none;}
	.st7{display:inline;}
</style>
<g id="Layer_2">
</g>
<g id="Layer_1">
	<g>
		<path class="st2" d="M59.7,23.8v8.5H39.6c-1.2,0.2-2.1,0.7-2.9,1.6c-0.8,0.9-1.2,1.9-1.2,3c0,1.2,0.4,2.3,1.2,3.1
			c0.8,0.9,1.8,1.4,3,1.5h20V50H40.1c-1.3,0-2.3,0.5-3.2,1.4c-0.9,0.9-1.3,2-1.3,3.2v13.1h-8.8V54.6c0-1.7,0.3-3.3,0.9-4.9
			s1.5-2.9,2.5-4c-1.1-1.2-1.9-2.5-2.5-4c-0.6-1.5-0.9-3.2-0.9-4.9c0-1.8,0.3-3.5,1-5.1c0.7-1.6,1.6-2.9,2.8-4.1s2.6-2.1,4.1-2.8
			c1.6-0.7,3.2-1,5.1-1H59.7z"/>
		<path class="st2" d="M99.4,36.8c0,1.8-0.3,3.4-0.9,4.9c-0.6,1.5-1.5,2.9-2.5,4c1.1,1.2,1.9,2.5,2.5,4s0.9,3.1,0.9,4.9v13.1h-8.8
			V54.6c0-1.3-0.4-2.3-1.3-3.2c-0.9-0.9-2-1.3-3.2-1.4h-11v-8.6h11.4c1.2-0.1,2.1-0.6,2.9-1.5c0.8-0.9,1.2-1.9,1.2-3.1
			c0-1.2-0.4-2.2-1.2-3c-0.8-0.9-1.7-1.4-2.8-1.6H71.4v35.5h-8.9v-44h24c1.8,0,3.4,0.3,5,1s3,1.6,4.1,2.8c1.2,1.2,2.1,2.6,2.8,4.1
			C99.1,33.3,99.4,35,99.4,36.8z"/>
		<path class="st2" d="M135.2,23.8v8.5h-20.1c-1.2,0.2-2.1,0.7-2.9,1.6c-0.8,0.9-1.2,1.9-1.2,3c0,1.2,0.4,2.3,1.2,3.1
			c0.8,0.9,1.8,1.4,3,1.5h20V50h-19.6c-1.3,0-2.3,0.5-3.2,1.4c-0.9,0.9-1.3,2-1.3,3.2c0,1.2,0.4,2.2,1.1,3c0.7,0.8,1.7,1.4,2.7,1.6
			h20.3v8.5h-20c-1.8,0-3.5-0.3-5.1-1c-1.6-0.7-2.9-1.6-4.1-2.8c-1.2-1.2-2.1-2.6-2.8-4.1c-0.7-1.6-1-3.2-1-5.1
			c0-1.8,0.3-3.4,0.9-4.9c0.6-1.5,1.5-2.9,2.5-4c-1.1-1.2-1.9-2.5-2.5-4c-0.6-1.5-0.9-3.2-0.9-4.9c0-1.8,0.3-3.5,1-5.1
			c0.7-1.6,1.6-2.9,2.8-4.1c1.2-1.2,2.6-2.1,4.1-2.8c1.6-0.7,3.2-1,5.1-1H135.2z"/>
		<path class="st2" d="M170.9,23.8v8.5h-20.1c-1.2,0.2-2.1,0.7-2.9,1.6c-0.8,0.9-1.2,1.9-1.2,3c0,1.2,0.4,2.3,1.2,3.1
			c0.8,0.9,1.8,1.4,3,1.5h20V50h-19.6c-1.3,0-2.3,0.5-3.2,1.4c-0.9,0.9-1.3,2-1.3,3.2c0,1.2,0.4,2.2,1.1,3c0.7,0.8,1.7,1.4,2.7,1.6
			h20.3v8.5h-20c-1.8,0-3.5-0.3-5.1-1c-1.6-0.7-2.9-1.6-4.1-2.8c-1.2-1.2-2.1-2.6-2.8-4.1c-0.7-1.6-1-3.2-1-5.1
			c0-1.8,0.3-3.4,0.9-4.9c0.6-1.5,1.5-2.9,2.5-4c-1.1-1.2-1.9-2.5-2.5-4c-0.6-1.5-0.9-3.2-0.9-4.9c0-1.8,0.3-3.5,1-5.1
			c0.7-1.6,1.6-2.9,2.8-4.1c1.2-1.2,2.6-2.1,4.1-2.8c1.6-0.7,3.2-1,5.1-1H170.9z"/>
		<path class="st2" d="M206.5,23.8c1.9,0,3.7,0.4,5.4,1.1s3.1,1.7,4.4,2.9c1.3,1.2,2.3,2.7,3,4.4c0.7,1.7,1.1,3.5,1.1,5.4v30.2h-8.9
			V36.9c-0.2-1.2-0.7-2.2-1.7-3.1s-2-1.3-3.3-1.3c-1.3,0-2.4,0.4-3.4,1.3c-0.9,0.9-1.5,1.9-1.6,3.2v30.7h-8.9V37.6
			c0-1.3-0.5-2.5-1.5-3.5c-1-1-2.1-1.5-3.5-1.5c-1.3,0-2.3,0.4-3.2,1.2c-0.9,0.8-1.5,1.8-1.7,3v30.9h-8.9V37.5
			c0-1.9,0.4-3.7,1.1-5.4c0.7-1.7,1.7-3.1,3-4.4c1.3-1.2,2.7-2.2,4.4-2.9s3.5-1.1,5.4-1.1c1.8,0,3.5,0.3,5.2,1
			c1.6,0.7,3,1.6,4.3,2.7c1.3-1.2,2.7-2.1,4.3-2.7C203,24.1,204.7,23.8,206.5,23.8z"/>
		<path class="st2" d="M240.6,23.8c2.4,0,4.7,0.5,6.8,1.4c2.1,0.9,4,2.2,5.6,3.7c1.6,1.6,2.8,3.4,3.7,5.6c0.9,2.1,1.4,4.4,1.4,6.8
			v26.5h-8.9v-8.8h-17v8.8h-8.9V41.2c0-2.4,0.5-4.7,1.4-6.8c0.9-2.1,2.2-4,3.7-5.6c1.6-1.6,3.4-2.8,5.6-3.7
			C235.9,24.2,238.2,23.8,240.6,23.8z M249.2,41.2c0-1.2-0.2-2.3-0.7-3.3c-0.4-1-1-2-1.8-2.7c-0.8-0.8-1.7-1.4-2.7-1.8
			c-1-0.4-2.2-0.7-3.3-0.7c-1.2,0-2.3,0.2-3.3,0.7c-1,0.4-2,1-2.7,1.8s-1.4,1.7-1.8,2.7c-0.4,1-0.7,2.2-0.7,3.3V50h17V41.2z"/>
		<path class="st2" d="M297.8,36.8c0,1.8-0.3,3.4-0.9,4.9c-0.6,1.5-1.5,2.9-2.5,4c1.1,1.2,1.9,2.5,2.5,4c0.6,1.5,0.9,3.1,0.9,4.9
			v13.1H289V54.6c0-1.3-0.4-2.3-1.3-3.2c-0.9-0.9-2-1.3-3.2-1.4h-11v-8.6h11.4c1.2-0.1,2.1-0.6,2.9-1.5c0.8-0.9,1.2-1.9,1.2-3.1
			c0-1.2-0.4-2.2-1.2-3c-0.8-0.9-1.7-1.4-2.8-1.6h-15.2v35.5h-8.9v-44h24c1.8,0,3.4,0.3,5,1c1.6,0.7,3,1.6,4.1,2.8s2.1,2.6,2.8,4.1
			C297.5,33.3,297.8,35,297.8,36.8z"/>
		<path class="st2" d="M332.4,36.4c-2.1,3.8-4.9,6.9-8.5,9.3c1.8,1.2,3.4,2.6,4.8,4.2c1.4,1.6,2.7,3.3,3.7,5.2c1,1.9,1.8,3.9,2.3,6
			c0.6,2.1,0.8,4.4,0.8,6.6h-8.9c0-2.3-0.4-4.5-1.3-6.6c-0.9-2.1-2-3.9-3.5-5.5c-1.5-1.6-3.2-2.9-5.3-3.8c-2-1-4.2-1.5-6.5-1.7h-0.6
			v17.6h-8.9v-44h8.9v17.4h0.6c2.3-0.1,4.4-0.7,6.5-1.6c2-1,3.8-2.2,5.3-3.8c1.5-1.6,2.7-3.4,3.5-5.4c0.9-2,1.3-4.2,1.3-6.6h8.9
			C335.6,28.4,334.5,32.6,332.4,36.4z"/>
		<path class="st2" d="M371.4,23.8v8.5h-20.1c-1.2,0.2-2.1,0.7-2.9,1.6c-0.8,0.9-1.2,1.9-1.2,3c0,1.2,0.4,2.3,1.2,3.1
			c0.8,0.9,1.8,1.4,3,1.5h20V50h-19.6c-1.3,0-2.3,0.5-3.2,1.4c-0.9,0.9-1.3,2-1.3,3.2c0,1.2,0.4,2.2,1.1,3c0.7,0.8,1.7,1.4,2.7,1.6
			h20.3v8.5h-20c-1.8,0-3.5-0.3-5.1-1c-1.6-0.7-2.9-1.6-4.1-2.8c-1.2-1.2-2.1-2.6-2.8-4.1c-0.7-1.6-1-3.2-1-5.1
			c0-1.8,0.3-3.4,0.9-4.9c0.6-1.5,1.5-2.9,2.5-4c-1.1-1.2-1.9-2.5-2.5-4c-0.6-1.5-0.9-3.2-0.9-4.9c0-1.8,0.3-3.5,1-5.1
			c0.7-1.6,1.6-2.9,2.8-4.1c1.2-1.2,2.6-2.1,4.1-2.8c1.6-0.7,3.2-1,5.1-1H371.4z"/>
		<path class="st2" d="M411.2,32.7h-14v35.1h-8.9V32.7h-14.1v-8.9h37.1V32.7z"/>
	</g>
</g>
</svg>
